<?xml version="1.0" encoding="UTF-8"?>
<svg width="197px" height="245px" viewBox="0 0 197 245" version="1.1" xmlns="http://www.w3.org/2000/svg" xmlns:xlink="http://www.w3.org/1999/xlink">
    <!-- Generator: Sketch 56.3 (81716) - https://sketch.com -->
    <title>Group</title>
    <desc>Created with Sketch.</desc>
    <g id="Icons-+-Images" stroke="none" stroke-width="1" fill="none" fill-rule="evenodd">
        <g id="noun_decentralized_1960195" transform="translate(-38.000000, 0.000000)" fill="#393B4A" fill-rule="nonzero">
            <g id="Group" transform="translate(38.000000, 0.000000)">
                <path d="M116.353143,98.769186 C106.603029,98.769186 98.699,106.689841 98.699,116.460465 C98.699,126.231089 106.603029,134.151744 116.353143,134.151744 C126.103257,134.151744 134.007286,126.231089 134.007286,116.460465 C133.991633,106.696346 126.096766,98.7848714 116.353143,98.769186 L116.353143,98.769186 Z M116.353143,128.45407 C109.743162,128.45407 104.384714,123.08435 104.384714,116.460465 C104.384714,109.83658 109.743162,104.46686 116.353143,104.46686 C122.963123,104.46686 128.321571,109.83658 128.321571,116.460465 C128.305942,123.077852 122.956639,128.438407 116.353143,128.45407 Z" id="Shape"></path>
                <path d="M176.422714,173.152326 L139.977286,136.117442 C149.666249,124.547675 149.521591,107.635354 139.636143,96.2337209 L176.877571,58.8569767 C178.860093,60.0558886 181.129062,60.6956859 183.444571,60.7087209 L183.444571,60.7087209 C188.617464,60.6926867 193.271634,57.5563707 195.237778,52.7616065 C197.203923,47.9668424 196.095048,42.4573756 192.428,38.8011628 C190.040583,36.4030849 186.796428,35.0596207 183.416143,35.069186 L183.416143,35.069186 C180.020638,35.0531199 176.761876,36.4086588 174.375857,38.8296512 C170.099207,43.132971 169.422683,49.8529733 172.755429,54.9255814 L135.457143,92.330814 C124.122956,83.2236512 107.965278,83.3426201 96.7658571,92.6156977 L24.5857143,20.1982558 C25.808057,18.2229162 26.4486116,15.9416952 26.4335714,13.6174419 C26.4271656,10.2023067 25.0429652,6.93488714 22.5957143,4.55813953 C18.4955083,0.470003966 12.1680732,-0.352650643 7.16257029,2.55161606 C2.15706737,5.45588276 -0.281161056,11.3645048 1.21552699,16.9632399 C2.71221504,22.561975 7.77145159,26.4578879 13.5554286,26.4656977 L13.5554286,26.4656977 C16.0440992,26.4487548 18.4740548,25.7063562 20.5488571,24.3290698 L92.8142857,96.6325581 C88.8403002,101.361741 86.3743315,107.177394 85.7355714,113.326744 L57.8755714,113.326744 C57.3538229,110.916582 56.1611178,108.703955 54.4357143,106.945349 C52.034242,104.550934 48.7830866,103.208804 45.3954286,103.213372 L45.3954286,103.213372 C38.3366422,103.244741 32.6309306,108.987924 32.631,116.061628 C32.6622368,123.124162 38.3760958,128.837316 45.4238571,128.852907 C48.7711478,128.920127 52.0096751,127.660894 54.4357143,125.348837 C56.0933925,123.681048 57.2464958,121.577393 57.7618571,119.280814 L85.6787143,119.280814 C86.5800551,129.794672 92.7621249,139.124861 102.082,144.037209 L67.2285714,218.876163 C64.8498951,218.317663 62.3603373,218.466162 60.0645714,219.303488 C56.9412601,220.459075 54.4182657,222.833212 53.0711429,225.884302 C50.9962795,230.667596 51.9564202,236.229054 55.5142856,240.035808 C59.0721511,243.842561 64.5472327,245.166497 69.446,243.404651 C72.5693113,242.249065 75.0923058,239.874928 76.4394286,236.823837 C78.8339081,231.320507 77.1532054,224.88978 72.3741429,221.269186 L107.341286,145.94593 C117.232149,149.003908 127.994827,146.861839 135.968857,140.248256 L172.414286,177.254651 C171.203359,179.24846 170.545796,181.530185 170.509571,183.863953 C170.509502,190.937658 176.215214,196.68084 183.274,196.712209 L183.274,196.712209 C186.659415,196.733765 189.913463,195.400696 192.314286,193.008721 C197.232077,188.434484 197.787575,180.829964 193.586927,175.586834 C189.386279,170.343704 181.857005,169.243755 176.337429,173.06686 L176.422714,173.152326 Z M178.384286,42.9034884 C179.721487,41.5712575 181.530539,40.823582 183.416143,40.8238328 L183.416143,40.8238328 C185.293757,40.821746 187.094642,41.5702753 188.419571,42.9034884 C189.749917,44.2336112 190.505441,46.0343114 190.523286,47.9174419 C190.523286,51.8555002 187.345904,55.0523338 183.416143,55.0680233 L183.416143,55.0680233 C180.54582,55.0570962 177.961444,53.3237518 176.857025,50.6688146 C175.752606,48.0138773 176.343165,44.9542397 178.355857,42.9034884 L178.384286,42.9034884 Z M18.5872857,18.6598837 C17.2688679,20.0062429 15.466223,20.7657675 13.5838571,20.7680276 L13.5838571,20.7680276 C11.7062429,20.7701145 9.90535764,20.0215851 8.58042857,18.6883721 C6.29429603,16.4174199 5.8167507,12.8902381 7.4164259,10.0909705 C9.0161011,7.29170291 12.2935265,5.91938157 15.4050537,6.7459777 C18.516581,7.57257384 20.6852005,10.3916701 20.691,13.6174419 C20.7163434,15.5175734 19.9546696,17.3432471 18.5872857,18.6598837 L18.5872857,18.6598837 Z M50.4272857,121.218023 C48.3895962,123.271147 45.3174183,123.890063 42.6462688,122.785576 C39.9751194,121.681088 38.2323869,119.071265 38.2323869,116.175581 C38.2323869,113.279898 39.9751194,110.670075 42.6462688,109.565587 C45.3174183,108.461099 48.3895962,109.080016 50.4272857,111.13314 C53.1768145,113.919083 53.1768145,118.403591 50.4272857,121.189535 L50.4272857,121.218023 Z M71.3791429,234.516279 C70.6507666,236.176846 69.273358,237.464445 67.5697143,238.077326 C65.7691604,238.737847 63.7778104,238.634984 62.0545714,237.792442 C58.4472358,236.123586 56.8117789,231.887667 58.3588571,228.220349 C59.0989835,226.57452 60.4735512,225.299857 62.1682857,224.687791 C62.9324243,224.403553 63.7412045,224.258824 64.5562857,224.260447 C65.6389797,224.258018 66.708145,224.501521 67.6834286,224.972674 C71.2714632,226.629387 72.9054406,230.836283 71.3791429,234.487791 L71.3791429,234.516279 Z M116.353143,141.644186 C106.186074,141.644186 97.0206585,135.505276 93.1325509,126.091266 C89.2444433,116.677257 91.3997484,105.843058 98.593019,98.6428103 C105.78629,91.4425627 116.600179,89.294988 125.99002,93.2019272 C135.379862,97.1088665 141.495501,106.300505 141.484016,116.488953 C141.452649,130.375283 130.210358,141.615733 116.353143,141.615698 L116.353143,141.644186 Z M188.391143,188.963372 C187.06512,190.29153 185.262465,191.030532 183.387714,191.014535 L183.387714,191.014535 C181.50405,191.018739 179.699005,190.258204 178.384286,188.906395 C177.049543,187.569925 176.302488,185.754761 176.308958,183.863953 C176.329878,181.981452 177.084939,180.181854 178.412714,178.85 C180.205305,177.007754 182.850113,176.277689 185.33122,176.940237 C187.812326,177.602784 189.743893,179.554911 190.38397,182.04677 C191.024048,184.538629 190.273097,187.182709 188.419571,188.963372 L188.391143,188.963372 Z" id="Shape"></path>
            </g>
        </g>
    </g>
</svg>